<?xml version="1.0" encoding="UTF-8"?>
<svg width="3840px" height="2160px" viewBox="0 0 3840 2160" version="1.1" xmlns="http://www.w3.org/2000/svg" xmlns:xlink="http://www.w3.org/1999/xlink">
    <title>лого логиг</title>
    <g id="Page-2" stroke="none" stroke-width="1" fill="none" fill-rule="evenodd">
        <g id="Group-2" transform="translate(983.54, 426.6797)" fill="#FFFFFF" fill-rule="nonzero">
            <g id="Group" transform="translate(600.8999, 0)">
                <path d="M650.180942,113.142335 C945.115052,112.277008 1183.47317,353.287683 1182.60821,651.382864 C1181.73393,949.432451 942.036747,1191.7814 647.148702,1192.65596 C352.214591,1193.52129 113.856477,952.510614 114.72143,654.415592 L134.723704,654.473782 C133.888519,941.526918 363.297232,1173.4886 647.089705,1172.65371 C930.928561,1171.81417 1161.76605,938.422926 1162.60594,651.324514 C1163.44112,364.271378 934.032412,132.309698 650.239779,133.144584 L650.180942,113.142335 Z" id="Path" transform="translate(648.6648, 652.8991) rotate(-14) translate(-648.6648, -652.8991)"></path>
                <path d="M649.874835,119.103071 C948.044489,118.412154 1189.25682,356.839105 1188.5656,651.689508 C1187.86849,946.502909 945.588326,1185.99836 647.454809,1186.69523 C349.285154,1187.38614 108.072825,948.959191 108.764048,654.10889 L128.765481,654.155877 C128.09893,937.871467 360.269008,1167.36058 647.408262,1166.69378 C934.583857,1166.02397 1167.89465,935.394807 1168.56416,651.642419 C1169.23071,367.92683 937.060636,138.437715 649.92128,139.104521 L649.874835,119.103071 Z" id="Path" transform="translate(648.6648, 652.8991) rotate(-79) translate(-648.6648, -652.8991)"></path>
            </g>
            <g id="LogicLovers" transform="translate(0, 567.9203)">
                <polygon id="Path" points="0 169.4 0 10.78 17.82 10.78 17.82 151.58 158.4 151.58 158.4 169.4"></polygon>
                <path d="M196.643934,169.4 C191.803934,169.4 187.367268,168.19 183.333934,165.77 C179.300601,163.35 176.073934,160.123333 173.653934,156.09 C171.233934,152.056667 170.023934,147.62 170.023934,142.78 L170.023934,68.42 C170.023934,63.58 171.233934,59.1433333 173.653934,55.11 C176.073934,51.0766667 179.300601,47.85 183.333934,45.43 C187.367268,43.01 191.803934,41.8 196.643934,41.8 L273.203934,41.8 C278.190601,41.8 282.700601,43.01 286.733934,45.43 C290.767268,47.85 293.993934,51.0766667 296.413934,55.11 C298.833934,59.1433333 300.043934,63.58 300.043934,68.42 L300.043934,142.78 C300.043934,147.62 298.833934,152.056667 296.413934,156.09 C293.993934,160.123333 290.767268,163.35 286.733934,165.77 C282.700601,168.19 278.190601,169.4 273.203934,169.4 L196.643934,169.4 Z M196.643934,151.36 L273.203934,151.36 C275.550601,151.36 277.567268,150.516667 279.253934,148.83 C280.940601,147.143333 281.783934,145.126667 281.783934,142.78 L281.783934,68.42 C281.783934,66.0733333 280.940601,64.0566667 279.253934,62.37 C277.567268,60.6833333 275.550601,59.84 273.203934,59.84 L196.643934,59.84 C194.297268,59.84 192.280601,60.6833333 190.593934,62.37 C188.907268,64.0566667 188.063934,66.0733333 188.063934,68.42 L188.063934,142.78 C188.063934,145.126667 188.907268,147.143333 190.593934,148.83 C192.280601,150.516667 194.297268,151.36 196.643934,151.36 Z" id="Shape"></path>
                <path d="M343.567869,219.78 L343.567869,219.78 L343.567869,201.52 L423.207869,201.52 C425.554536,201.52 427.571202,200.676667 429.257869,198.99 C430.944536,197.303333 431.787869,195.286667 431.787869,192.94 L431.787869,169.4 L346.647869,169.4 C341.807869,169.4 337.371202,168.19 333.337869,165.77 C329.304536,163.35 326.077869,160.123333 323.657869,156.09 C321.237869,152.056667 320.027869,147.62 320.027869,142.78 L320.027869,68.42 C320.027869,63.58 321.237869,59.1433333 323.657869,55.11 C326.077869,51.0766667 329.304536,47.85 333.337869,45.43 C337.371202,43.01 341.807869,41.8 346.647869,41.8 L423.207869,41.8 C428.194536,41.8 432.704536,43.01 436.737869,45.43 C440.771202,47.85 443.961202,51.0766667 446.307869,55.11 C448.654536,59.1433333 449.827869,63.58 449.827869,68.42 L449.827869,192.94 C449.827869,197.926667 448.654536,202.436667 446.307869,206.47 C443.961202,210.503333 440.771202,213.73 436.737869,216.15 C432.704536,218.57 428.194536,219.78 423.207869,219.78 L343.567869,219.78 Z M346.647869,151.36 L423.207869,151.36 C425.554536,151.36 427.571202,150.516667 429.257869,148.83 C430.944536,147.143333 431.787869,145.126667 431.787869,142.78 L431.787869,68.42 C431.787869,66.0733333 430.944536,64.0566667 429.257869,62.37 C427.571202,60.6833333 425.554536,59.84 423.207869,59.84 L346.647869,59.84 C344.301202,59.84 342.284536,60.6833333 340.597869,62.37 C338.911202,64.0566667 338.067869,66.0733333 338.067869,68.42 L338.067869,142.78 C338.067869,145.126667 338.911202,147.143333 340.597869,148.83 C342.284536,150.516667 344.301202,151.36 346.647869,151.36 Z" id="Shape"></path>
                <path d="M472.671803,169.4 L472.671803,169.4 L472.671803,41.8 L490.711803,41.8 L490.711803,169.4 L472.671803,169.4 Z M472.671803,18.04 L472.671803,18.04 L472.671803,0 L490.711803,0 L490.711803,18.04 L472.671803,18.04 Z" id="Shape"></path>
                <path d="M541.495738,169.4 C536.655738,169.4 532.219071,168.19 528.185738,165.77 C524.152404,163.35 520.925738,160.123333 518.505738,156.09 C516.085738,152.056667 514.875738,147.62 514.875738,142.78 L514.875738,68.42 C514.875738,63.58 516.085738,59.1433333 518.505738,55.11 C520.925738,51.0766667 524.152404,47.85 528.185738,45.43 C532.219071,43.01 536.655738,41.8 541.495738,41.8 L644.455738,41.8 L644.455738,59.84 L541.495738,59.84 C539.149071,59.84 537.132404,60.6833333 535.445738,62.37 C533.759071,64.0566667 532.915738,66.0733333 532.915738,68.42 L532.915738,142.78 C532.915738,145.126667 533.759071,147.143333 535.445738,148.83 C537.132404,150.516667 539.149071,151.36 541.495738,151.36 L644.895738,151.36 L644.895738,169.4 L541.495738,169.4 Z" id="Path"></path>
                <polygon id="Path" points="669.059672 169.4 669.059672 10.78 686.879672 10.78 686.879672 151.58 827.459672 151.58 827.459672 169.4"></polygon>
                <path d="M865.703607,169.4 C860.863607,169.4 856.42694,168.19 852.393607,165.77 C848.360273,163.35 845.133607,160.123333 842.713607,156.09 C840.293607,152.056667 839.083607,147.62 839.083607,142.78 L839.083607,68.42 C839.083607,63.58 840.293607,59.1433333 842.713607,55.11 C845.133607,51.0766667 848.360273,47.85 852.393607,45.43 C856.42694,43.01 860.863607,41.8 865.703607,41.8 L942.263607,41.8 C947.250273,41.8 951.760273,43.01 955.793607,45.43 C959.82694,47.85 963.053607,51.0766667 965.473607,55.11 C967.893607,59.1433333 969.103607,63.58 969.103607,68.42 L969.103607,142.78 C969.103607,147.62 967.893607,152.056667 965.473607,156.09 C963.053607,160.123333 959.82694,163.35 955.793607,165.77 C951.760273,168.19 947.250273,169.4 942.263607,169.4 L865.703607,169.4 Z M865.703607,151.36 L942.263607,151.36 C944.610273,151.36 946.62694,150.516667 948.313607,148.83 C950.000273,147.143333 950.843607,145.126667 950.843607,142.78 L950.843607,68.42 C950.843607,66.0733333 950.000273,64.0566667 948.313607,62.37 C946.62694,60.6833333 944.610273,59.84 942.263607,59.84 L865.703607,59.84 C863.35694,59.84 861.340273,60.6833333 859.653607,62.37 C857.96694,64.0566667 857.123607,66.0733333 857.123607,68.42 L857.123607,142.78 C857.123607,145.126667 857.96694,147.143333 859.653607,148.83 C861.340273,150.516667 863.35694,151.36 865.703607,151.36 Z" id="Shape"></path>
                <polygon id="Path" points="1052.22754 169.4 1052.22754 169.4 981.827541 41.8 1002.94754 41.8 1062.78754 151.8 1122.62754 41.8 1143.74754 41.8 1073.12754 169.4"></polygon>
                <path d="M1182.21148,169.4 C1177.37148,169.4 1172.93481,168.19 1168.90148,165.77 C1164.86814,163.35 1161.64148,160.123333 1159.22148,156.09 C1156.80148,152.056667 1155.59148,147.62 1155.59148,142.78 L1155.59148,68.42 C1155.59148,63.58 1156.80148,59.1433333 1159.22148,55.11 C1161.64148,51.0766667 1164.86814,47.85 1168.90148,45.43 C1172.93481,43.01 1177.37148,41.8 1182.21148,41.8 L1258.77148,41.8 C1263.75814,41.8 1268.26814,43.01 1272.30148,45.43 C1276.33481,47.85 1279.56148,51.0766667 1281.98148,55.11 C1284.40148,59.1433333 1285.61148,63.58 1285.61148,68.42 L1285.61148,114.62 L1173.63148,114.62 L1173.63148,142.78 C1173.63148,145.126667 1174.47481,147.143333 1176.16148,148.83 C1177.84814,150.516667 1179.86481,151.36 1182.21148,151.36 L1285.61148,151.36 L1285.61148,169.4 L1182.21148,169.4 Z M1173.63148,96.58 L1267.35148,96.58 L1267.35148,68.42 C1267.35148,66.0733333 1266.50814,64.0566667 1264.82148,62.37 C1263.13481,60.6833333 1261.11814,59.84 1258.77148,59.84 L1182.21148,59.84 C1179.86481,59.84 1177.84814,60.6833333 1176.16148,62.37 C1174.47481,64.0566667 1173.63148,66.0733333 1173.63148,68.42 L1173.63148,96.58 Z" id="Shape"></path>
                <path d="M1306.91541,169.4 L1306.91541,169.4 L1306.91541,68.42 C1306.91541,63.58 1308.12541,59.1433333 1310.54541,55.11 C1312.96541,51.0766667 1316.19208,47.85 1320.22541,45.43 C1324.25874,43.01 1328.69541,41.8 1333.53541,41.8 L1405.25541,41.8 L1405.25541,59.84 L1333.53541,59.84 C1331.18874,59.84 1329.17208,60.6833333 1327.48541,62.37 C1325.79874,64.0566667 1324.95541,66.0733333 1324.95541,68.42 L1324.95541,169.4 L1306.91541,169.4 Z" id="Path"></path>
                <path d="M1445.25934,169.4 C1440.41934,169.4 1435.98268,168.19 1431.94934,165.77 C1427.91601,163.35 1424.68934,160.123333 1422.26934,156.09 C1419.84934,152.056667 1418.63934,147.62 1418.63934,142.78 L1418.63934,141.02 L1436.67934,141.02 L1436.67934,142.78 C1436.67934,145.126667 1437.52268,147.143333 1439.20934,148.83 C1440.89601,150.516667 1442.91268,151.36 1445.25934,151.36 L1521.81934,151.36 C1524.16601,151.36 1526.18268,150.516667 1527.86934,148.83 C1529.55601,147.143333 1530.39934,145.126667 1530.39934,142.78 L1530.39934,123.2 C1530.39934,120.853333 1529.55601,118.836667 1527.86934,117.15 C1526.18268,115.463333 1524.16601,114.62 1521.81934,114.62 L1445.25934,114.62 C1440.41934,114.62 1435.98268,113.41 1431.94934,110.99 C1427.91601,108.57 1424.68934,105.343333 1422.26934,101.31 C1419.84934,97.2766667 1418.63934,92.84 1418.63934,88 L1418.63934,68.42 C1418.63934,63.58 1419.84934,59.1433333 1422.26934,55.11 C1424.68934,51.0766667 1427.91601,47.85 1431.94934,45.43 C1435.98268,43.01 1440.41934,41.8 1445.25934,41.8 L1521.81934,41.8 C1526.80601,41.8 1531.31601,43.01 1535.34934,45.43 C1539.38268,47.85 1542.60934,51.0766667 1545.02934,55.11 C1547.44934,59.1433333 1548.65934,63.58 1548.65934,68.42 L1548.65934,70.18 L1530.39934,70.18 L1530.39934,68.42 C1530.39934,66.0733333 1529.55601,64.0566667 1527.86934,62.37 C1526.18268,60.6833333 1524.16601,59.84 1521.81934,59.84 L1445.25934,59.84 C1442.91268,59.84 1440.89601,60.6833333 1439.20934,62.37 C1437.52268,64.0566667 1436.67934,66.0733333 1436.67934,68.42 L1436.67934,88 C1436.67934,90.3466667 1437.52268,92.3633333 1439.20934,94.05 C1440.89601,95.7366667 1442.91268,96.58 1445.25934,96.58 L1521.81934,96.58 C1526.80601,96.58 1531.31601,97.79 1535.34934,100.21 C1539.38268,102.63 1542.60934,105.856667 1545.02934,109.89 C1547.44934,113.923333 1548.65934,118.36 1548.65934,123.2 L1548.65934,142.78 C1548.65934,147.62 1547.44934,152.056667 1545.02934,156.09 C1542.60934,160.123333 1539.38268,163.35 1535.34934,165.77 C1531.31601,168.19 1526.80601,169.4 1521.81934,169.4 L1445.25934,169.4 Z" id="Path"></path>
            </g>
        </g>
    </g>
</svg>