<?xml version="1.0" encoding="UTF-8"?>
<svg width="220px" height="220px" viewBox="0 0 220 220" version="1.1" xmlns="http://www.w3.org/2000/svg" xmlns:xlink="http://www.w3.org/1999/xlink" style="background: #FFFFFF;">
    <title>лого логиг</title>
    <g id="Page-1" stroke="none" stroke-width="1" fill="none" fill-rule="evenodd">
        <g id="Group-2" transform="translate(2.54, 31.8271)" fill="#000000" fill-rule="nonzero">
            <g id="Group" transform="translate(57.9051, 0)">
                <path d="M78.559516,13.7212086 C114.272817,13.6175555 143.135383,42.4869976 143.030646,78.1943023 C142.92478,113.896146 113.900068,142.925893 78.1923448,143.030652 C42.4790437,143.134305 13.6164782,114.264863 13.7212145,78.5575774 L16.1432716,78.5645477 C16.0421398,112.949182 43.8210305,140.734691 78.1852009,140.634685 C112.554988,140.53412 140.506888,112.577371 140.608589,78.187313 C140.709721,43.8026787 112.93083,16.0171695 78.5666405,16.1171762 L78.559516,13.7212086 Z" id="Path" transform="translate(78.3759, 78.3759) rotate(-14) translate(-78.3759, -78.3759)"></path>
                <path d="M77.9246476,14.44318 C113.631405,14.3594957 142.517343,43.2379285 142.434567,78.9504076 C142.351087,114.658405 113.337272,143.666256 77.6348418,143.75066 C41.9280842,143.834345 13.0421461,114.955912 13.1249222,79.2434449 L15.5201569,79.249136 C15.4403353,113.612959 43.2434353,141.408835 77.6292678,141.328071 C112.019452,141.246944 139.959156,113.312984 140.039333,78.9447043 C140.119154,44.5808812 112.316054,16.7850051 77.9302095,16.8657692 L77.9246476,14.44318 Z" id="Path" transform="translate(77.7797, 79.0969) rotate(-79) translate(-77.7797, -79.0969)"></path>
            </g>
            <g id="LogicLovers" transform="translate(0, 68.8042)">
                <polygon id="Path" points="0 20.517842 0 1.30568085 1.78359736 1.30568085 1.78359736 18.3594716 15.8541987 18.3594716 15.8541987 20.517842"></polygon>
                <path d="M19.6820203,20.517842 C19.1975864,20.517842 18.7535221,20.371286 18.3498272,20.078174 C17.9461323,19.7850619 17.6231764,19.3942459 17.3809595,18.9057258 C17.1387426,18.4172058 17.0176341,17.8798337 17.0176341,17.2936097 L17.0176341,8.28707644 C17.0176341,7.70085238 17.1387426,7.16348033 17.3809595,6.67496029 C17.6231764,6.18644024 17.9461323,5.7956242 18.3498272,5.50251217 C18.7535221,5.20940014 19.1975864,5.06284413 19.6820203,5.06284413 L27.344883,5.06284413 C27.8439967,5.06284413 28.2954009,5.20940014 28.6990958,5.50251217 C29.1027907,5.7956242 29.4257466,6.18644024 29.6679635,6.67496029 C29.9101804,7.16348033 30.0312889,7.70085238 30.0312889,8.28707644 L30.0312889,17.2936097 C30.0312889,17.8798337 29.9101804,18.4172058 29.6679635,18.9057258 C29.4257466,19.3942459 29.1027907,19.7850619 28.6990958,20.078174 C28.2954009,20.371286 27.8439967,20.517842 27.344883,20.517842 L19.6820203,20.517842 Z M19.6820203,18.3328251 L27.344883,18.3328251 C27.57976,18.3328251 27.7816074,18.23068 27.9504253,18.0263898 C28.1192432,17.8220996 28.2036521,17.5778395 28.2036521,17.2936097 L28.2036521,8.28707644 C28.2036521,8.0028466 28.1192432,7.75858657 27.9504253,7.55429637 C27.7816074,7.35000617 27.57976,7.24786107 27.344883,7.24786107 L19.6820203,7.24786107 C19.4471433,7.24786107 19.2452958,7.35000617 19.076478,7.55429637 C18.9076601,7.75858657 18.8232512,8.0028466 18.8232512,8.28707644 L18.8232512,17.2936097 C18.8232512,17.5778395 18.9076601,17.8220996 19.076478,18.0263898 C19.2452958,18.23068 19.4471433,18.3328251 19.6820203,18.3328251 Z" id="Shape"></path>
                <path d="M34.3875837,26.6199015 L34.3875837,26.6199015 L34.3875837,24.408238 L42.3587225,24.408238 C42.5935996,24.408238 42.795447,24.3060929 42.9642648,24.1018027 C43.1330827,23.8975125 43.2174916,23.6532525 43.2174916,23.3690226 L43.2174916,20.517842 L34.6958598,20.517842 C34.211426,20.517842 33.7673616,20.371286 33.3636667,20.078174 C32.9599719,19.7850619 32.637016,19.3942459 32.394799,18.9057258 C32.1525821,18.4172058 32.0314737,17.8798337 32.0314737,17.2936097 L32.0314737,8.28707644 C32.0314737,7.70085238 32.1525821,7.16348033 32.394799,6.67496029 C32.637016,6.18644024 32.9599719,5.7956242 33.3636667,5.50251217 C33.7673616,5.20940014 34.211426,5.06284413 34.6958598,5.06284413 L42.3587225,5.06284413 C42.8578362,5.06284413 43.3092405,5.20940014 43.7129353,5.50251217 C44.1166302,5.7956242 44.4359162,6.18644024 44.6707932,6.67496029 C44.9056702,7.16348033 45.0231087,7.70085238 45.0231087,8.28707644 L45.0231087,23.3690226 C45.0231087,23.9730111 44.9056702,24.5192653 44.6707932,25.0077853 C44.4359162,25.4963054 44.1166302,25.8871214 43.7129353,26.1802335 C43.3092405,26.4733455 42.8578362,26.6199015 42.3587225,26.6199015 L34.3875837,26.6199015 Z M34.6958598,18.3328251 L42.3587225,18.3328251 C42.5935996,18.3328251 42.795447,18.23068 42.9642648,18.0263898 C43.1330827,17.8220996 43.2174916,17.5778395 43.2174916,17.2936097 L43.2174916,8.28707644 C43.2174916,8.0028466 43.1330827,7.75858657 42.9642648,7.55429637 C42.795447,7.35000617 42.5935996,7.24786107 42.3587225,7.24786107 L34.6958598,7.24786107 C34.4609828,7.24786107 34.2591354,7.35000617 34.0903175,7.55429637 C33.9214997,7.75858657 33.8370907,8.0028466 33.8370907,8.28707644 L33.8370907,17.2936097 C33.8370907,17.5778395 33.9214997,17.8220996 34.0903175,18.0263898 C34.2591354,18.23068 34.4609828,18.3328251 34.6958598,18.3328251 Z" id="Shape"></path>
                <path d="M47.3095498,20.517842 L47.3095498,20.517842 L47.3095498,5.06284413 L49.1151669,5.06284413 L49.1151669,20.517842 L47.3095498,20.517842 Z M47.3095498,2.18501694 L47.3095498,2.18501694 L47.3095498,0 L49.1151669,0 L49.1151669,2.18501694 L47.3095498,2.18501694 Z" id="Shape"></path>
                <path d="M54.1981125,20.517842 C53.7136787,20.517842 53.2696143,20.371286 52.8659195,20.078174 C52.4622246,19.7850619 52.1392687,19.3942459 51.8970518,18.9057258 C51.6548348,18.4172058 51.5337264,17.8798337 51.5337264,17.2936097 L51.5337264,8.28707644 C51.5337264,7.70085238 51.6548348,7.16348033 51.8970518,6.67496029 C52.1392687,6.18644024 52.4622246,5.7956242 52.8659195,5.50251217 C53.2696143,5.20940014 53.7136787,5.06284413 54.1981125,5.06284413 L64.5033417,5.06284413 L64.5033417,7.24786107 L54.1981125,7.24786107 C53.9632355,7.24786107 53.7613881,7.35000617 53.5925702,7.55429637 C53.4237524,7.75858657 53.3393435,8.0028466 53.3393435,8.28707644 L53.3393435,17.2936097 C53.3393435,17.5778395 53.4237524,17.8220996 53.5925702,18.0263898 C53.7613881,18.23068 53.9632355,18.3328251 54.1981125,18.3328251 L64.5473812,18.3328251 L64.5473812,20.517842 L54.1981125,20.517842 Z" id="Path"></path>
                <polygon id="Path" points="66.9659406 20.517842 66.9659406 1.30568085 68.749538 1.30568085 68.749538 18.3594716 82.8201393 18.3594716 82.8201393 20.517842"></polygon>
                <path d="M86.6479609,20.517842 C86.163527,20.517842 85.7194627,20.371286 85.3157678,20.078174 C84.9120729,19.7850619 84.589117,19.3942459 84.3469001,18.9057258 C84.1046832,18.4172058 83.9835747,17.8798337 83.9835747,17.2936097 L83.9835747,8.28707644 C83.9835747,7.70085238 84.1046832,7.16348033 84.3469001,6.67496029 C84.589117,6.18644024 84.9120729,5.7956242 85.3157678,5.50251217 C85.7194627,5.20940014 86.163527,5.06284413 86.6479609,5.06284413 L94.3108236,5.06284413 C94.8099373,5.06284413 95.2613415,5.20940014 95.6650364,5.50251217 C96.0687313,5.7956242 96.3916872,6.18644024 96.6339041,6.67496029 C96.876121,7.16348033 96.9972295,7.70085238 96.9972295,8.28707644 L96.9972295,17.2936097 C96.9972295,17.8798337 96.876121,18.4172058 96.6339041,18.9057258 C96.3916872,19.3942459 96.0687313,19.7850619 95.6650364,20.078174 C95.2613415,20.371286 94.8099373,20.517842 94.3108236,20.517842 L86.6479609,20.517842 Z M86.6479609,18.3328251 L94.3108236,18.3328251 C94.5457006,18.3328251 94.7475481,18.23068 94.9163659,18.0263898 C95.0851838,17.8220996 95.1695927,17.5778395 95.1695927,17.2936097 L95.1695927,8.28707644 C95.1695927,8.0028466 95.0851838,7.75858657 94.9163659,7.55429637 C94.7475481,7.35000617 94.5457006,7.24786107 94.3108236,7.24786107 L86.6479609,7.24786107 C86.4130839,7.24786107 86.2112364,7.35000617 86.0424186,7.55429637 C85.8736007,7.75858657 85.7891918,8.0028466 85.7891918,8.28707644 L85.7891918,17.2936097 C85.7891918,17.5778395 85.8736007,17.8220996 86.0424186,18.0263898 C86.2112364,18.23068 86.4130839,18.3328251 86.6479609,18.3328251 Z" id="Shape"></path>
                <polygon id="Path" points="105.317074 20.517842 105.317074 20.517842 98.2707635 5.06284413 100.384657 5.06284413 106.374021 18.3861182 112.363385 5.06284413 114.477278 5.06284413 107.408947 20.517842"></polygon>
                <path d="M118.327119,20.517842 C117.842685,20.517842 117.398621,20.371286 116.994926,20.078174 C116.591231,19.7850619 116.268275,19.3942459 116.026058,18.9057258 C115.783841,18.4172058 115.662733,17.8798337 115.662733,17.2936097 L115.662733,8.28707644 C115.662733,7.70085238 115.783841,7.16348033 116.026058,6.67496029 C116.268275,6.18644024 116.591231,5.7956242 116.994926,5.50251217 C117.398621,5.20940014 117.842685,5.06284413 118.327119,5.06284413 L125.989982,5.06284413 C126.489095,5.06284413 126.9405,5.20940014 127.344195,5.50251217 C127.747889,5.7956242 128.070845,6.18644024 128.313062,6.67496029 C128.555279,7.16348033 128.676388,7.70085238 128.676388,8.28707644 L128.676388,13.8828515 L117.46835,13.8828515 L117.46835,17.2936097 C117.46835,17.5778395 117.552759,17.8220996 117.721577,18.0263898 C117.890395,18.23068 118.092242,18.3328251 118.327119,18.3328251 L128.676388,18.3328251 L128.676388,20.517842 L118.327119,20.517842 Z M117.46835,11.6978346 L126.848751,11.6978346 L126.848751,8.28707644 C126.848751,8.0028466 126.764342,7.75858657 126.595524,7.55429637 C126.426706,7.35000617 126.224859,7.24786107 125.989982,7.24786107 L118.327119,7.24786107 C118.092242,7.24786107 117.890395,7.35000617 117.721577,7.55429637 C117.552759,7.75858657 117.46835,8.0028466 117.46835,8.28707644 L117.46835,11.6978346 Z" id="Shape"></path>
                <path d="M130.808691,20.517842 L130.808691,20.517842 L130.808691,8.28707644 C130.808691,7.70085238 130.929799,7.16348033 131.172016,6.67496029 C131.414233,6.18644024 131.737189,5.7956242 132.140884,5.50251217 C132.544579,5.20940014 132.988643,5.06284413 133.473077,5.06284413 L140.651506,5.06284413 L140.651506,7.24786107 L133.473077,7.24786107 C133.2382,7.24786107 133.036352,7.35000617 132.867535,7.55429637 C132.698717,7.75858657 132.614308,8.0028466 132.614308,8.28707644 L132.614308,20.517842 L130.808691,20.517842 Z" id="Path"></path>
                <path d="M144.655485,20.517842 C144.171051,20.517842 143.726987,20.371286 143.323292,20.078174 C142.919597,19.7850619 142.596641,19.3942459 142.354424,18.9057258 C142.112207,18.4172058 141.991099,17.8798337 141.991099,17.2936097 L141.991099,17.0804373 L143.796716,17.0804373 L143.796716,17.2936097 C143.796716,17.5778395 143.881125,17.8220996 144.049943,18.0263898 C144.218761,18.23068 144.420608,18.3328251 144.655485,18.3328251 L152.318348,18.3328251 C152.553225,18.3328251 152.755072,18.23068 152.92389,18.0263898 C153.092708,17.8220996 153.177117,17.5778395 153.177117,17.2936097 L153.177117,14.9220669 C153.177117,14.6378371 153.092708,14.393577 152.92389,14.1892868 C152.755072,13.9849966 152.553225,13.8828515 152.318348,13.8828515 L144.655485,13.8828515 C144.171051,13.8828515 143.726987,13.7362955 143.323292,13.4431835 C142.919597,13.1500715 142.596641,12.7592554 142.354424,12.2707354 C142.112207,11.7822153 141.991099,11.2448433 141.991099,10.6586192 L141.991099,8.28707644 C141.991099,7.70085238 142.112207,7.16348033 142.354424,6.67496029 C142.596641,6.18644024 142.919597,5.7956242 143.323292,5.50251217 C143.726987,5.20940014 144.171051,5.06284413 144.655485,5.06284413 L152.318348,5.06284413 C152.817461,5.06284413 153.268866,5.20940014 153.672561,5.50251217 C154.076255,5.7956242 154.399211,6.18644024 154.641428,6.67496029 C154.883645,7.16348033 155.004754,7.70085238 155.004754,8.28707644 L155.004754,8.50024883 L153.177117,8.50024883 L153.177117,8.28707644 C153.177117,8.0028466 153.092708,7.75858657 152.92389,7.55429637 C152.755072,7.35000617 152.553225,7.24786107 152.318348,7.24786107 L144.655485,7.24786107 C144.420608,7.24786107 144.218761,7.35000617 144.049943,7.55429637 C143.881125,7.75858657 143.796716,8.0028466 143.796716,8.28707644 L143.796716,10.6586192 C143.796716,10.9428491 143.881125,11.1871091 144.049943,11.3913993 C144.218761,11.5956895 144.420608,11.6978346 144.655485,11.6978346 L152.318348,11.6978346 C152.817461,11.6978346 153.268866,11.8443906 153.672561,12.1375026 C154.076255,12.4306147 154.399211,12.8214307 154.641428,13.3099507 C154.883645,13.7984708 155.004754,14.3358428 155.004754,14.9220669 L155.004754,17.2936097 C155.004754,17.8798337 154.883645,18.4172058 154.641428,18.9057258 C154.399211,19.3942459 154.076255,19.7850619 153.672561,20.078174 C153.268866,20.371286 152.817461,20.517842 152.318348,20.517842 L144.655485,20.517842 Z" id="Path"></path>
            </g>
        </g>
    </g>
</svg>